<svg xmlns="http://www.w3.org/2000/svg" width="149" height="33" viewBox="0 0 149 33" fill="none"><path fill-rule="evenodd" clip-rule="evenodd" d="M37.6124 0H19.0619C17.3513 0 15.9642 1.38706 15.9642 3.0977C15.9642 4.80833 17.3513 6.19539 19.0619 6.19539H20.8642C22.5748 6.19539 23.9618 7.58245 23.9618 9.29309V9.72848C23.9618 11.4391 22.5748 12.8262 20.8642 12.8262H12.1778C10.4671 12.8262 9.08006 14.2132 9.08006 15.9239V15.9774C9.08006 17.688 10.4671 19.0751 12.1778 19.0751H17.2752C18.9858 19.0751 20.3729 20.4622 20.3729 22.1728V22.6153C20.3729 24.326 18.9858 25.713 17.2752 25.713H7.76319C6.05255 25.713 4.66549 27.1001 4.66549 28.8107V28.8916C4.66549 30.6022 6.05255 31.9893 7.76319 31.9893H24.8802V32.0309H37.4363C46.275 32.0309 53.5779 24.9457 53.6291 16.1071C53.6802 7.23628 46.4761 0 37.6124 0ZM37.4768 26.6813H35.3022V21.0409C35.3488 19.9582 35.9704 18.9389 36.6655 18.1448C37.3174 17.399 37.5993 16.3236 37.5993 15.3493C37.5993 13.1521 36.1718 11.3701 34.41 11.3701C32.6482 11.3701 31.2207 13.1509 31.2207 15.3493C31.2207 16.3331 31.5098 17.4668 32.1974 18.2055C32.8885 18.949 33.4595 19.9792 33.5166 21.0094C33.5166 21.0201 33.5166 21.032 33.5178 21.0427V26.6825H31.649C30.8615 26.6825 30.2227 26.0449 30.2215 25.2574L30.187 6.78424C30.1858 5.99435 30.8246 5.35435 31.6145 5.35435H37.6124C38.7925 5.35435 39.9274 5.54706 40.9897 5.90275V10.8229C40.9897 10.9236 40.9908 11.0269 40.9919 11.132V11.1322C40.9979 11.6891 41.0044 12.2948 40.8493 12.8071C40.7981 12.9761 40.7327 13.1402 40.6613 13.3008C40.4401 13.7969 40.1926 14.237 39.856 14.6629C39.7795 14.7592 39.6958 14.85 39.6122 14.9406C39.5152 15.0459 39.4182 15.1511 39.3326 15.2648C39.1732 15.4766 39.0566 15.699 38.9733 15.9417C38.8972 16.1654 38.8496 16.4033 38.8496 16.64V21.0677C38.8496 21.4947 39.1958 21.8409 39.6228 21.8409C40.0499 21.8409 40.3961 21.4947 40.3961 21.0677V17.2871C40.4008 17.1944 40.4424 16.9541 40.7529 16.9493C41.0551 16.9445 41.1027 17.1825 41.1086 17.2812V21.0677C41.1086 21.4947 41.4548 21.8409 41.8818 21.8409C42.3089 21.8409 42.6551 21.4947 42.6551 21.0677V17.2729C42.6634 17.1717 42.7157 16.9541 43.0108 16.9493C43.3391 16.9433 43.3665 17.2253 43.3676 17.3038V21.0677C43.3676 21.4947 43.7138 21.8409 44.1409 21.8409C44.5679 21.8409 44.9141 21.4947 44.9141 21.0677V16.64C44.9141 16.1546 44.7297 15.68 44.4502 15.2898C44.3642 15.1701 44.2635 15.0596 44.1626 14.9488C44.082 14.8604 44.0014 14.7719 43.9279 14.6784C43.7626 14.4678 43.5996 14.2323 43.4557 13.9955C43.3522 13.8254 43.2558 13.6506 43.1678 13.4721C42.9346 12.9999 42.7621 12.499 42.774 11.9673C42.778 11.8166 42.7767 11.6659 42.7754 11.5152C42.7747 11.4399 42.774 11.3646 42.774 11.2892V6.68669C46.0811 8.52342 48.3152 12.0684 48.2759 16.1213C48.2188 21.992 43.3474 26.6802 37.4768 26.6802V26.6813Z" fill="#1D2433"></path><path d="M10.1888 6.05826C11.7063 5.81194 12.7368 4.38207 12.4905 2.86457C12.2442 1.34707 10.8143 0.316576 9.29679 0.562901C7.77928 0.809227 6.74879 2.23909 6.99512 3.75659C7.24144 5.27409 8.67131 6.30459 10.1888 6.05826Z" fill="#1D2433"></path><path d="M5.49348 15.752C5.84663 17.2482 4.91996 18.7475 3.4237 19.1006C1.92745 19.4538 0.428214 18.5271 0.075066 17.0308C-0.278082 15.5346 0.648588 14.0353 2.14484 13.6822C3.64109 13.329 5.14033 14.2557 5.49348 15.752Z" fill="#1D2433"></path><path d="M76.2657 9.91377C76.2657 4.89239 73.2686 4.18256 69.9561 4.18256H68.0895V15.6713H69.9561C73.2686 15.6713 76.2657 14.9614 76.2657 9.91377ZM63.5939 0.396806H69.8772C76.1079 0.396806 81.0241 2.65774 81.0241 9.91377C81.0241 17.1961 76.1079 19.457 69.8772 19.457H63.5939V0.396806ZM92.1998 10.6236V10.0715C92.1998 8.41525 91.3586 7.81058 89.8075 7.81058C88.4141 7.81058 87.4414 8.52041 87.2836 9.88748H83.235C83.419 7.2322 85.9954 4.8661 90.1755 4.8661C94.2242 4.8661 96.564 6.49608 96.4851 10.8076L96.4325 13.8836C96.4062 15.7239 96.4851 18.2477 96.748 19.457H92.489L92.4365 17.7482C91.3849 19.2467 89.7023 19.7988 87.678 19.7988C84.9964 19.7988 82.788 18.2214 82.788 15.645C82.788 12.1747 86.7052 11.018 92.1998 10.6236ZM92.305 13.1737C89.2817 13.4366 87.2573 13.831 87.2573 15.3295C87.2573 16.2497 88.1249 16.8543 89.2554 16.8543C90.9905 16.8543 92.305 16.1182 92.305 13.5155V13.1737ZM107.019 8.36267C105.31 8.36267 103.89 9.46684 103.89 12.385C103.89 15.3032 105.31 16.4337 107.019 16.4337C108.754 16.4337 110.174 15.014 110.174 12.385C110.174 9.75603 108.754 8.36267 107.019 8.36267ZM104.101 0.396806V7.2322C105.021 5.68109 106.888 4.99755 108.439 4.99755C112.067 4.99755 114.669 7.758 114.669 12.385C114.669 17.0121 112.067 19.7988 108.439 19.7988C106.888 19.7988 105.021 19.1153 104.101 17.5642V19.457H99.7629V0.396806H104.101ZM124.644 8.36267C122.935 8.36267 121.515 9.46684 121.515 12.385C121.515 15.3032 122.935 16.4337 124.644 16.4337C126.379 16.4337 127.798 15.014 127.798 12.385C127.798 9.75603 126.379 8.36267 124.644 8.36267ZM121.725 0.396806V7.2322C122.645 5.68109 124.512 4.99755 126.063 4.99755C129.691 4.99755 132.294 7.758 132.294 12.385C132.294 17.0121 129.691 19.7988 126.063 19.7988C124.512 19.7988 122.645 19.1153 121.725 17.5642V19.457H117.387V0.396806H121.725ZM143.661 10.6236V10.0715C143.661 8.41525 142.82 7.81058 141.269 7.81058C139.876 7.81058 138.903 8.52041 138.745 9.88748H134.697C134.881 7.2322 137.457 4.8661 141.637 4.8661C145.686 4.8661 148.026 6.49608 147.947 10.8076L147.894 13.8836C147.868 15.7239 147.947 18.2477 148.21 19.457H143.951L143.898 17.7482C142.846 19.2467 141.164 19.7988 139.14 19.7988C136.458 19.7988 134.25 18.2214 134.25 15.645C134.25 12.1747 138.167 11.018 143.661 10.6236ZM143.767 13.1737C140.743 13.4366 138.719 13.831 138.719 15.3295C138.719 16.2497 139.586 16.8543 140.717 16.8543C142.452 16.8543 143.767 16.1182 143.767 13.5155V13.1737Z" fill="#1D2433"></path><path d="M63.4445 32.3643V25.2921H68.5949V26.4237H64.8394V28.1795H68.3901V29.3111H64.8394V31.2327H68.5949V32.3643H63.4445ZM72.0499 32.3643L74.6837 25.2921H76.0883L78.7318 32.3643H77.2199L76.7224 30.9303H73.9716L73.4741 32.3643H72.0499ZM75.347 26.9992L74.3715 29.789H76.3224L75.347 26.9992ZM83.1991 32.3643V26.4237H81.0238V25.2921H86.779V26.4237H84.594V32.3643H83.1991ZM93.3238 29.4281L92.4264 29.2623C91.2753 29.0379 90.3096 28.4429 90.3096 27.2138C90.3096 25.7896 91.8216 25.1653 93.1287 25.1653C94.5919 25.1653 95.8405 26.0237 95.9088 27.3796H94.5626C94.4553 26.5505 93.7335 26.2774 93.0702 26.2774C92.4264 26.2774 91.7045 26.5212 91.7045 27.1553C91.7045 27.6528 92.124 27.9259 92.6897 28.0332L93.6164 28.199C94.7675 28.4039 96.0356 28.8623 96.0356 30.3255C96.0356 31.779 94.5919 32.4911 93.1677 32.4911C91.4314 32.4911 90.2803 31.5546 90.1535 30.0329H91.4997C91.6558 31.0669 92.3776 31.379 93.2165 31.379C93.8408 31.379 94.6309 31.1547 94.6309 30.3938C94.6309 29.789 94.0749 29.5647 93.3238 29.4281Z" fill="#1D2433"></path></svg>