<?xml version="1.0" standalone="no"?>
<!DOCTYPE svg PUBLIC "-//W3C//DTD SVG 20010904//EN"
 "http://www.w3.org/TR/2001/REC-SVG-20010904/DTD/svg10.dtd">
<svg version="1.0" xmlns="http://www.w3.org/2000/svg"
 width="217.000000pt" height="232.000000pt" viewBox="0 0 217.000000 232.000000"
 preserveAspectRatio="xMidYMid meet">

<g transform="translate(0.000000,232.000000) scale(0.100000,-0.100000)"
fill="#000000" stroke="none">
<path d="M850 2307 c-65 -19 -112 -44 -158 -82 -44 -38 -97 -116 -107 -157 -6
-22 -16 -30 -49 -39 -172 -46 -315 -239 -316 -428 -1 -53 -3 -57 -40 -86 -89
-67 -159 -189 -175 -301 -14 -105 34 -244 116 -338 39 -44 41 -50 36 -90 -23
-168 92 -370 257 -452 40 -19 91 -38 114 -41 39 -5 43 -9 71 -68 41 -88 90
-139 179 -182 68 -34 83 -38 156 -38 63 0 92 6 133 24 85 38 177 154 197 246
3 17 8 84 11 151 2 67 7 128 11 138 5 13 21 16 80 16 l74 0 0 -94 c0 -94 0
-94 -34 -128 -108 -108 -3 -283 144 -239 103 31 132 175 50 245 l-30 25 0 140
c0 139 0 140 -26 160 -23 18 -41 21 -135 21 l-109 0 0 68 c0 37 3 77 6 90 l6
22 319 0 319 0 0 -213 c0 -195 -1 -213 -18 -224 -11 -6 -26 -27 -35 -46 -48
-99 16 -207 122 -207 138 0 199 159 96 249 l-35 30 0 251 c0 237 -1 251 -20
270 -19 19 -33 20 -385 20 l-365 0 0 38 c0 22 3 73 6 115 l7 77 281 0 280 0
37 -36 c84 -82 216 -44 243 69 17 70 -43 157 -118 171 -43 8 -117 -21 -138
-53 -12 -20 -20 -21 -299 -21 l-286 0 -7 53 c-3 28 -6 71 -6 95 l0 42 159 0
c145 0 161 2 185 21 l26 20 0 164 c0 160 0 163 24 178 34 23 59 82 53 128 -18
137 -195 174 -267 56 -36 -59 -21 -141 35 -185 24 -19 25 -24 25 -136 l0 -116
-120 0 c-88 0 -122 3 -124 13 -2 6 -9 66 -15 132 -21 221 -44 295 -118 371
-81 84 -216 122 -323 91z m182 -173 c21 -13 50 -43 64 -65 56 -89 54 -57 54
-910 0 -868 3 -820 -62 -916 -40 -59 -86 -84 -152 -84 -94 0 -183 65 -206 152
-22 81 22 163 121 227 90 57 109 76 109 111 0 43 -30 75 -72 75 -73 0 -258
-152 -289 -238 -16 -44 -39 -46 -109 -11 -62 32 -113 82 -144 143 -33 67 -39
112 -25 198 l13 74 -61 63 c-82 84 -107 134 -107 217 -1 54 4 74 29 119 27 49
47 69 150 154 29 24 30 29 36 129 4 79 11 113 28 148 38 74 121 150 163 150 8
0 20 -16 27 -35 7 -19 35 -59 63 -90 42 -46 56 -55 84 -55 21 0 42 8 54 20 27
27 26 81 -1 106 -26 24 -65 90 -73 127 -15 63 38 158 108 194 73 38 137 37
198 -3z"/>
<path d="M580 1520 c-79 -86 -130 -219 -130 -340 0 -114 46 -248 113 -325 27
-31 40 -38 67 -37 68 2 96 66 55 125 -113 167 -110 335 9 475 60 72 40 142
-41 142 -29 0 -43 -7 -73 -40z"/>
</g>
</svg>
